# File created by Blade
# Date/Time:  Wed Jan 21 15:15:22 2015
# Frame Rate: 120.000 fps
#------------------------------------------------------
:FULLY-SPECIFIED
:DEGREES
624
root 17.417488 35.990990 -18.847851 101.117464 -82.827110 -70.818926
Spine -32.600149 -10.730604 2.452574
Head 4.513704 3.896732 11.520226
LeftShoulder -14.399825 -22.256051 2.685128
LeftArm -13.132308 9.008854 -57.959140
LeftForeArm 2.692974 -0.000000 4.783512
LeftHand -1.025450 0.000000 -4.146753
LeftHandThumb1 -26.253704 0.000000 33.147579
RightShoulder -21.376291 -25.313334 3.149203
RightArm -12.678307 3.065866 67.580109
RightForeArm -37.354710 0.000000 8.258986
RightHand -4.237198 -0.000000 26.877676
RightHandThumb1 -24.326973 -0.000000 -32.862282
LeftUpLeg -23.979653 3.826518 -4.399354
LeftLeg -6.143335 -0.000000 0.000000
LeftFoot -17.174134 20.161572 -9.927536
LeftToeBase 23.483763 -0.000000 -0.000000
RightUpLeg 9.930865 -0.410649 -2.355165
RightLeg 128.602337 -0.000000 -0.000000
RightFoot 8.402182 -39.443812 -2.716847
RightToeBase 22.017955 -0.000000 -0.000000
625
root 17.436224 35.986975 -18.860886 102.431058 -82.767369 -71.930260
Spine -32.607109 -10.565685 2.457135
Head 4.055869 3.916841 11.576571
LeftShoulder -14.359455 -22.361777 2.744691
LeftArm -13.123021 8.939151 -57.958993
LeftForeArm 2.682813 -0.000000 4.835496
LeftHand -1.027370 -0.000000 -4.135629
LeftHandThumb1 -26.253704 0.000000 33.147579
RightShoulder -21.354563 -25.288978 3.087476
RightArm -12.667100 3.167170 67.609878
RightForeArm -37.258420 -0.000000 8.269961
RightHand -4.315609 -0.000000 26.940903
RightHandThumb1 -24.326973 -0.000000 -32.862282
LeftUpLeg -24.205513 3.654981 -4.289080
LeftLeg -6.193564 -0.000000 0.000000
LeftFoot -17.264233 20.750192 -9.889141
LeftToeBase 23.341390 -0.000000 -0.000000
RightUpLeg 9.829269 -0.232409 -2.404974
RightLeg 128.804704 -0.000000 -0.000000
RightFoot 8.768994 -39.213762 -3.234634
RightToeBase 21.951090 -0.000000 -0.000000
626
root 17.455545 35.986113 -18.875200 103.899573 -82.711971 -73.172458
Spine -32.658619 -10.381629 2.429879
Head 3.661519 3.934081 11.682882
LeftShoulder -14.331473 -22.332774 2.790973
LeftArm -12.953550 8.940352 -57.971564
LeftForeArm 2.697731 -0.000000 4.837886
LeftHand -1.055385 -0.000000 -4.111089
LeftHandThumb1 -26.253704 0.000000 33.147579
RightShoulder -21.356548 -25.276346 3.073164
RightArm -12.619591 3.284223 67.622476
RightForeArm -37.206939 0.000000 8.226482
RightHand -4.368993 -0.000000 27.005980
RightHandThumb1 -24.326973 -0.000000 -32.862282
LeftUpLeg -24.471358 3.460930 -4.153569
LeftLeg -6.196497 -0.000000 0.000000
LeftFoot -17.338316 21.364901 -9.827530
LeftToeBase 23.078787 -0.000000 -0.000000
RightUpLeg 9.658118 -0.033600 -2.445890
RightLeg 128.997727 -0.000000 -0.000000
RightFoot 8.993924 -39.117392 -3.437081
RightToeBase 21.999919 -0.000000 -0.000000
627
root 17.482188 35.989929 -18.892348 105.464722 -82.617573 -74.435861
Spine -32.784804 -10.205340 2.469850
Head 3.246387 3.964184 11.777281
LeftShoulder -14.252824 -22.424914 2.817377
LeftArm -12.960905 8.914734 -57.940377
LeftForeArm 2.772794 -0.000000 4.857240
LeftHand -1.024599 0.000000 -4.121349
LeftHandThumb1 -26.253704 0.000000 33.147579
RightShoulder -21.322320 -25.241463 3.046065
RightArm -12.600596 3.523072 67.603628
RightForeArm -37.281471 -0.000000 8.184918
RightHand -4.391797 -0.000000 27.136361
RightHandThumb1 -24.326973 -0.000000 -32.862282
LeftUpLeg -24.853878 3.366205 -4.018357
LeftLeg -6.142250 -0.000000 0.000000
LeftFoot -17.432559 21.882630 -9.726107
LeftToeBase 23.066455 -0.000000 -0.000000
RightUpLeg 9.364784 0.157739 -2.418911
RightLeg 129.213384 -0.000000 -0.000000
RightFoot 9.085202 -39.095721 -3.382161
RightToeBase 22.085388 -0.000000 -0.000000
628
root 17.491467 35.985508 -18.909753 107.114792 -82.572462 -75.972783
Spine -32.715246 -10.015700 2.370270
Head 2.846943 3.971816 11.923859
LeftShoulder -14.180838 -22.486177 2.849054
LeftArm -12.857161 8.991475 -57.907601
LeftForeArm 2.753634 0.000000 4.764594
LeftHand -0.938040 -0.000000 -4.160727
LeftHandThumb1 -26.253704 0.000000 33.147579
RightShoulder -21.307169 -25.175856 3.077555
RightArm -12.628334 3.743012 67.601335
RightForeArm -37.465934 -0.000000 8.219984
RightHand -4.495237 -0.000000 27.142773
RightHandThumb1 -24.326973 -0.000000 -32.862282
LeftUpLeg -24.988734 3.426820 -3.983637
LeftLeg -6.142004 -0.000000 0.000000
LeftFoot -17.510353 22.249860 -9.511668
LeftToeBase 22.995253 -0.000000 -0.000000
RightUpLeg 9.309106 0.407851 -2.451384
RightLeg 129.428907 -0.000000 -0.000000
RightFoot 8.954549 -38.839042 -3.178635
RightToeBase 22.103018 -0.000000 -0.000000
629
root 17.506101 35.985092 -18.923703 108.630006 -82.541914 -77.342702
Spine -32.670287 -9.857039 2.254692
Head 2.486261 3.967376 12.099168
LeftShoulder -14.092676 -22.472627 2.850479
LeftArm -12.728928 8.987199 -57.858481
LeftForeArm 2.748661 0.000000 4.800660
LeftHand -0.987491 -0.000000 -4.138731
LeftHandThumb1 -26.253704 0.000000 33.147579
RightShoulder -21.296452 -25.122975 3.172357
RightArm -12.630751 3.989716 67.551528
RightForeArm -37.594513 -0.000000 8.236567
RightHand -4.507236 0.000000 27.260287
RightHandThumb1 -24.326973 -0.000000 -32.862282
LeftUpLeg -25.147624 3.451032 -3.957245
LeftLeg -6.166502 -0.000000 0.000000
LeftFoot -17.576706 22.562890 -9.418398
LeftToeBase 23.002812 -0.000000 -0.000000
RightUpLeg 9.185014 0.518993 -2.530046
RightLeg 129.542898 -0.000000 -0.000000
RightFoot 9.392413 -39.068343 -3.611755
RightToeBase 22.355266 -0.000000 -0.000000
